<mxfile host="app.diagrams.net" agent="Mozilla/5.0 (Macintosh; Intel Mac OS X 10_15_7) AppleWebKit/537.36 (KHTML, like Gecko) Chrome/139.0.0.0 Safari/537.36" version="28.1.1">
  <diagram id="R2lEEEUBdFMjLlhIrx00" name="Page-1">
    <mxGraphModel grid="1" page="1" gridSize="10" guides="1" tooltips="1" connect="1" arrows="1" fold="1" pageScale="1" pageWidth="1200" pageHeight="950" math="0" shadow="0" extFonts="Permanent Marker^https://fonts.googleapis.com/css?family=Permanent+Marker">
      <root>
        <mxCell id="0" />
        <mxCell id="1" parent="0" />
        <mxCell id="6fytZfHo-FX2xhKZQ4Zg-25" value="" style="shape=tableRow;horizontal=0;startSize=0;swimlaneHead=0;swimlaneBody=0;fillColor=none;collapsible=0;dropTarget=0;points=[[0,0.5],[1,0.5]];portConstraint=eastwest;top=0;left=0;right=0;bottom=0;" vertex="1" parent="1">
          <mxGeometry x="590" y="140" width="240" height="30" as="geometry" />
        </mxCell>
        <mxCell id="6fytZfHo-FX2xhKZQ4Zg-26" value="" style="shape=partialRectangle;connectable=0;fillColor=none;top=0;left=0;bottom=0;right=0;editable=1;overflow=hidden;whiteSpace=wrap;html=1;" vertex="1" parent="6fytZfHo-FX2xhKZQ4Zg-25">
          <mxGeometry width="30" height="30" as="geometry">
            <mxRectangle width="30" height="30" as="alternateBounds" />
          </mxGeometry>
        </mxCell>
        <mxCell id="6fytZfHo-FX2xhKZQ4Zg-52" style="edgeStyle=orthogonalEdgeStyle;rounded=0;orthogonalLoop=1;jettySize=auto;html=1;exitX=1;exitY=0.5;exitDx=0;exitDy=0;startArrow=ERmandOne;startFill=0;endArrow=ERzeroToOne;endFill=0;" edge="1" parent="1" source="6fytZfHo-FX2xhKZQ4Zg-6">
          <mxGeometry relative="1" as="geometry">
            <mxPoint x="680" y="185" as="targetPoint" />
          </mxGeometry>
        </mxCell>
        <mxCell id="6fytZfHo-FX2xhKZQ4Zg-88" value="reviews" style="shape=table;startSize=30;container=1;collapsible=1;childLayout=tableLayout;fixedRows=1;rowLines=0;fontStyle=1;align=center;resizeLast=1;html=1;" vertex="1" parent="1">
          <mxGeometry x="40" y="110" width="240" height="210" as="geometry" />
        </mxCell>
        <mxCell id="6fytZfHo-FX2xhKZQ4Zg-89" value="" style="shape=tableRow;horizontal=0;startSize=0;swimlaneHead=0;swimlaneBody=0;fillColor=none;collapsible=0;dropTarget=0;points=[[0,0.5],[1,0.5]];portConstraint=eastwest;top=0;left=0;right=0;bottom=1;" vertex="1" parent="6fytZfHo-FX2xhKZQ4Zg-88">
          <mxGeometry y="30" width="240" height="30" as="geometry" />
        </mxCell>
        <mxCell id="6fytZfHo-FX2xhKZQ4Zg-90" value="PK" style="shape=partialRectangle;connectable=0;fillColor=none;top=0;left=0;bottom=0;right=0;fontStyle=1;overflow=hidden;whiteSpace=wrap;html=1;" vertex="1" parent="6fytZfHo-FX2xhKZQ4Zg-89">
          <mxGeometry width="30" height="30" as="geometry">
            <mxRectangle width="30" height="30" as="alternateBounds" />
          </mxGeometry>
        </mxCell>
        <mxCell id="6fytZfHo-FX2xhKZQ4Zg-91" value="ID" style="shape=partialRectangle;connectable=0;fillColor=none;top=0;left=0;bottom=0;right=0;align=left;spacingLeft=6;fontStyle=5;overflow=hidden;whiteSpace=wrap;html=1;" vertex="1" parent="6fytZfHo-FX2xhKZQ4Zg-89">
          <mxGeometry x="30" width="210" height="30" as="geometry">
            <mxRectangle width="210" height="30" as="alternateBounds" />
          </mxGeometry>
        </mxCell>
        <mxCell id="6fytZfHo-FX2xhKZQ4Zg-92" value="" style="shape=tableRow;horizontal=0;startSize=0;swimlaneHead=0;swimlaneBody=0;fillColor=none;collapsible=0;dropTarget=0;points=[[0,0.5],[1,0.5]];portConstraint=eastwest;top=0;left=0;right=0;bottom=0;" vertex="1" parent="6fytZfHo-FX2xhKZQ4Zg-88">
          <mxGeometry y="60" width="240" height="30" as="geometry" />
        </mxCell>
        <mxCell id="6fytZfHo-FX2xhKZQ4Zg-93" value="FK" style="shape=partialRectangle;connectable=0;fillColor=none;top=0;left=0;bottom=0;right=0;editable=1;overflow=hidden;whiteSpace=wrap;html=1;" vertex="1" parent="6fytZfHo-FX2xhKZQ4Zg-92">
          <mxGeometry width="30" height="30" as="geometry">
            <mxRectangle width="30" height="30" as="alternateBounds" />
          </mxGeometry>
        </mxCell>
        <mxCell id="6fytZfHo-FX2xhKZQ4Zg-94" value="user_id" style="shape=partialRectangle;connectable=0;fillColor=none;top=0;left=0;bottom=0;right=0;align=left;spacingLeft=6;overflow=hidden;whiteSpace=wrap;html=1;" vertex="1" parent="6fytZfHo-FX2xhKZQ4Zg-92">
          <mxGeometry x="30" width="210" height="30" as="geometry">
            <mxRectangle width="210" height="30" as="alternateBounds" />
          </mxGeometry>
        </mxCell>
        <mxCell id="6fytZfHo-FX2xhKZQ4Zg-95" value="" style="shape=tableRow;horizontal=0;startSize=0;swimlaneHead=0;swimlaneBody=0;fillColor=none;collapsible=0;dropTarget=0;points=[[0,0.5],[1,0.5]];portConstraint=eastwest;top=0;left=0;right=0;bottom=0;" vertex="1" parent="6fytZfHo-FX2xhKZQ4Zg-88">
          <mxGeometry y="90" width="240" height="30" as="geometry" />
        </mxCell>
        <mxCell id="6fytZfHo-FX2xhKZQ4Zg-96" value="" style="shape=partialRectangle;connectable=0;fillColor=none;top=0;left=0;bottom=0;right=0;editable=1;overflow=hidden;whiteSpace=wrap;html=1;" vertex="1" parent="6fytZfHo-FX2xhKZQ4Zg-95">
          <mxGeometry width="30" height="30" as="geometry">
            <mxRectangle width="30" height="30" as="alternateBounds" />
          </mxGeometry>
        </mxCell>
        <mxCell id="6fytZfHo-FX2xhKZQ4Zg-97" value="book_id" style="shape=partialRectangle;connectable=0;fillColor=none;top=0;left=0;bottom=0;right=0;align=left;spacingLeft=6;overflow=hidden;whiteSpace=wrap;html=1;" vertex="1" parent="6fytZfHo-FX2xhKZQ4Zg-95">
          <mxGeometry x="30" width="210" height="30" as="geometry">
            <mxRectangle width="210" height="30" as="alternateBounds" />
          </mxGeometry>
        </mxCell>
        <mxCell id="6fytZfHo-FX2xhKZQ4Zg-98" value="" style="endArrow=ERzeroToMany;html=1;rounded=0;entryX=1;entryY=0.5;entryDx=0;entryDy=0;startArrow=ERmandOne;startFill=0;endFill=0;exitX=0;exitY=0.5;exitDx=0;exitDy=0;" edge="1" parent="1" source="6fytZfHo-FX2xhKZQ4Zg-6" target="6fytZfHo-FX2xhKZQ4Zg-92">
          <mxGeometry width="50" height="50" relative="1" as="geometry">
            <mxPoint x="240" y="70" as="sourcePoint" />
            <mxPoint x="240" y="190" as="targetPoint" />
          </mxGeometry>
        </mxCell>
        <mxCell id="6fytZfHo-FX2xhKZQ4Zg-99" value="" style="endArrow=ERzeroToMany;html=1;rounded=0;startArrow=ERmandOne;startFill=0;endFill=0;exitX=0.5;exitY=0;exitDx=0;exitDy=0;entryX=0.5;entryY=1;entryDx=0;entryDy=0;" edge="1" parent="1" source="6fytZfHo-FX2xhKZQ4Zg-72" target="6fytZfHo-FX2xhKZQ4Zg-88">
          <mxGeometry width="50" height="50" relative="1" as="geometry">
            <mxPoint x="200" y="280" as="sourcePoint" />
            <mxPoint x="40" y="270" as="targetPoint" />
          </mxGeometry>
        </mxCell>
        <mxCell id="6fytZfHo-FX2xhKZQ4Zg-100" value="FK" style="shape=partialRectangle;connectable=0;fillColor=none;top=0;left=0;bottom=0;right=0;editable=1;overflow=hidden;whiteSpace=wrap;html=1;" vertex="1" parent="1">
          <mxGeometry x="40" y="200" width="30" height="30" as="geometry">
            <mxRectangle width="30" height="30" as="alternateBounds" />
          </mxGeometry>
        </mxCell>
        <mxCell id="6fytZfHo-FX2xhKZQ4Zg-101" value="rating" style="shape=partialRectangle;connectable=0;fillColor=none;top=0;left=0;bottom=0;right=0;align=left;spacingLeft=6;overflow=hidden;whiteSpace=wrap;html=1;" vertex="1" parent="1">
          <mxGeometry x="70" y="230" width="210" height="30" as="geometry">
            <mxRectangle width="210" height="30" as="alternateBounds" />
          </mxGeometry>
        </mxCell>
        <mxCell id="6fytZfHo-FX2xhKZQ4Zg-104" value="" style="endArrow=none;html=1;rounded=0;" edge="1" parent="1">
          <mxGeometry width="50" height="50" relative="1" as="geometry">
            <mxPoint x="70" y="320" as="sourcePoint" />
            <mxPoint x="70" y="230" as="targetPoint" />
          </mxGeometry>
        </mxCell>
        <mxCell id="6fytZfHo-FX2xhKZQ4Zg-125" value="" style="endArrow=ERoneToMany;html=1;rounded=0;startArrow=ERmandOne;startFill=0;endFill=0;entryX=0.163;entryY=0.014;entryDx=0;entryDy=0;entryPerimeter=0;" edge="1" parent="1">
          <mxGeometry width="50" height="50" relative="1" as="geometry">
            <mxPoint x="520" y="512.14" as="sourcePoint" />
            <mxPoint x="520.1199999999999" y="685.08" as="targetPoint" />
            <Array as="points" />
          </mxGeometry>
        </mxCell>
        <mxCell id="6fytZfHo-FX2xhKZQ4Zg-129" style="edgeStyle=orthogonalEdgeStyle;rounded=0;orthogonalLoop=1;jettySize=auto;html=1;startArrow=ERmandOne;startFill=0;endArrow=ERzeroToMany;endFill=0;entryX=0;entryY=0.5;entryDx=0;entryDy=0;exitX=1;exitY=0.5;exitDx=0;exitDy=0;" edge="1" parent="1" source="6fytZfHo-FX2xhKZQ4Zg-73" target="6fytZfHo-FX2xhKZQ4Zg-111">
          <mxGeometry relative="1" as="geometry">
            <mxPoint x="290" y="725" as="sourcePoint" />
            <mxPoint x="400" y="730" as="targetPoint" />
          </mxGeometry>
        </mxCell>
        <mxCell id="7yqjaefxmZHhMjh67zaD-2" value="&lt;font style=&quot;font-size: 11px;&quot;&gt;&lt;span style=&quot;text-wrap-mode: nowrap;&quot;&gt;・ユーザー情報（名前／メールアドレス／住所）&lt;/span&gt;&lt;br style=&quot;text-wrap-mode: nowrap;&quot;&gt;&lt;span style=&quot;text-wrap-mode: nowrap;&quot;&gt;・注文（ユーザー、複数の本、数量、合計金額、注文日時）&lt;/span&gt;&lt;br style=&quot;text-wrap-mode: nowrap;&quot;&gt;&lt;span style=&quot;text-wrap-mode: nowrap;&quot;&gt;・本（タイトル／著者／ISBN／価格／在庫数）&lt;/span&gt;&lt;br style=&quot;text-wrap-mode: nowrap;&quot;&gt;&lt;span style=&quot;text-wrap-mode: nowrap;&quot;&gt;・レビュー（ユーザー、本、評価スコア、コメント、投稿日時）&lt;/span&gt;&lt;/font&gt;" style="rounded=0;whiteSpace=wrap;html=1;align=left;" vertex="1" parent="1">
          <mxGeometry x="320" y="10" width="320" height="80" as="geometry" />
        </mxCell>
        <mxCell id="W_eK2zmT97ttqeAv3BiO-31" value="" style="endArrow=ERmandOne;html=1;rounded=0;endFill=0;startArrow=ERzeroToOne;startFill=0;exitX=0.815;exitY=-0.014;exitDx=0;exitDy=0;exitPerimeter=0;" edge="1" parent="1" source="6fytZfHo-FX2xhKZQ4Zg-60">
          <mxGeometry width="50" height="50" relative="1" as="geometry">
            <mxPoint x="580" y="330" as="sourcePoint" />
            <mxPoint x="680" y="330" as="targetPoint" />
            <Array as="points">
              <mxPoint x="556" y="330" />
            </Array>
          </mxGeometry>
        </mxCell>
        <mxCell id="W_eK2zmT97ttqeAv3BiO-26" value="" style="endArrow=none;html=1;rounded=0;" edge="1" parent="1">
          <mxGeometry width="50" height="50" relative="1" as="geometry">
            <mxPoint x="710" y="380" as="sourcePoint" />
            <mxPoint x="710" y="165" as="targetPoint" />
          </mxGeometry>
        </mxCell>
        <mxCell id="W_eK2zmT97ttqeAv3BiO-33" value="・住所の登録がゼロだと注文を行うことはできない。&lt;br&gt;・既存のaddressの編集を行うとupdateではなくcreateが走り、新規のaddressデータが作成される。" style="rounded=0;whiteSpace=wrap;html=1;align=left;perimeterSpacing=1;spacingLeft=5;" vertex="1" parent="1">
          <mxGeometry x="950" y="110" width="210" height="100" as="geometry" />
        </mxCell>
        <mxCell id="W_eK2zmT97ttqeAv3BiO-34" value="comment" style="shape=partialRectangle;connectable=0;fillColor=none;top=0;left=0;bottom=0;right=0;align=left;spacingLeft=6;overflow=hidden;whiteSpace=wrap;html=1;" vertex="1" parent="1">
          <mxGeometry x="70" y="260" width="210" height="30" as="geometry">
            <mxRectangle width="210" height="30" as="alternateBounds" />
          </mxGeometry>
        </mxCell>
        <mxCell id="6fytZfHo-FX2xhKZQ4Zg-103" value="created_at" style="shape=partialRectangle;connectable=0;fillColor=none;top=0;left=0;bottom=0;right=0;align=left;spacingLeft=6;overflow=hidden;whiteSpace=wrap;html=1;" vertex="1" parent="1">
          <mxGeometry x="70" y="290" width="210" height="30" as="geometry">
            <mxRectangle width="210" height="30" as="alternateBounds" />
          </mxGeometry>
        </mxCell>
        <mxCell id="6fytZfHo-FX2xhKZQ4Zg-72" value="books" style="shape=table;startSize=30;container=1;collapsible=1;childLayout=tableLayout;fixedRows=1;rowLines=0;fontStyle=1;align=center;resizeLast=1;html=1;" vertex="1" parent="1">
          <mxGeometry x="40" y="440" width="240" height="240" as="geometry" />
        </mxCell>
        <mxCell id="6fytZfHo-FX2xhKZQ4Zg-73" value="" style="shape=tableRow;horizontal=0;startSize=0;swimlaneHead=0;swimlaneBody=0;fillColor=none;collapsible=0;dropTarget=0;points=[[0,0.5],[1,0.5]];portConstraint=eastwest;top=0;left=0;right=0;bottom=1;" vertex="1" parent="6fytZfHo-FX2xhKZQ4Zg-72">
          <mxGeometry y="30" width="240" height="30" as="geometry" />
        </mxCell>
        <mxCell id="6fytZfHo-FX2xhKZQ4Zg-74" value="PK" style="shape=partialRectangle;connectable=0;fillColor=none;top=0;left=0;bottom=0;right=0;fontStyle=1;overflow=hidden;whiteSpace=wrap;html=1;" vertex="1" parent="6fytZfHo-FX2xhKZQ4Zg-73">
          <mxGeometry width="30" height="30" as="geometry">
            <mxRectangle width="30" height="30" as="alternateBounds" />
          </mxGeometry>
        </mxCell>
        <mxCell id="6fytZfHo-FX2xhKZQ4Zg-75" value="ID" style="shape=partialRectangle;connectable=0;fillColor=none;top=0;left=0;bottom=0;right=0;align=left;spacingLeft=6;fontStyle=5;overflow=hidden;whiteSpace=wrap;html=1;" vertex="1" parent="6fytZfHo-FX2xhKZQ4Zg-73">
          <mxGeometry x="30" width="210" height="30" as="geometry">
            <mxRectangle width="210" height="30" as="alternateBounds" />
          </mxGeometry>
        </mxCell>
        <mxCell id="6fytZfHo-FX2xhKZQ4Zg-76" value="" style="shape=tableRow;horizontal=0;startSize=0;swimlaneHead=0;swimlaneBody=0;fillColor=none;collapsible=0;dropTarget=0;points=[[0,0.5],[1,0.5]];portConstraint=eastwest;top=0;left=0;right=0;bottom=0;" vertex="1" parent="6fytZfHo-FX2xhKZQ4Zg-72">
          <mxGeometry y="60" width="240" height="30" as="geometry" />
        </mxCell>
        <mxCell id="6fytZfHo-FX2xhKZQ4Zg-77" value="FK" style="shape=partialRectangle;connectable=0;fillColor=none;top=0;left=0;bottom=0;right=0;editable=1;overflow=hidden;whiteSpace=wrap;html=1;" vertex="1" parent="6fytZfHo-FX2xhKZQ4Zg-76">
          <mxGeometry width="30" height="30" as="geometry">
            <mxRectangle width="30" height="30" as="alternateBounds" />
          </mxGeometry>
        </mxCell>
        <mxCell id="6fytZfHo-FX2xhKZQ4Zg-78" value="author_id" style="shape=partialRectangle;connectable=0;fillColor=none;top=0;left=0;bottom=0;right=0;align=left;spacingLeft=6;overflow=hidden;whiteSpace=wrap;html=1;" vertex="1" parent="6fytZfHo-FX2xhKZQ4Zg-76">
          <mxGeometry x="30" width="210" height="30" as="geometry">
            <mxRectangle width="210" height="30" as="alternateBounds" />
          </mxGeometry>
        </mxCell>
        <mxCell id="6fytZfHo-FX2xhKZQ4Zg-79" value="" style="shape=tableRow;horizontal=0;startSize=0;swimlaneHead=0;swimlaneBody=0;fillColor=none;collapsible=0;dropTarget=0;points=[[0,0.5],[1,0.5]];portConstraint=eastwest;top=0;left=0;right=0;bottom=0;" vertex="1" parent="6fytZfHo-FX2xhKZQ4Zg-72">
          <mxGeometry y="90" width="240" height="30" as="geometry" />
        </mxCell>
        <mxCell id="6fytZfHo-FX2xhKZQ4Zg-80" value="" style="shape=partialRectangle;connectable=0;fillColor=none;top=0;left=0;bottom=0;right=0;editable=1;overflow=hidden;whiteSpace=wrap;html=1;" vertex="1" parent="6fytZfHo-FX2xhKZQ4Zg-79">
          <mxGeometry width="30" height="30" as="geometry">
            <mxRectangle width="30" height="30" as="alternateBounds" />
          </mxGeometry>
        </mxCell>
        <mxCell id="6fytZfHo-FX2xhKZQ4Zg-81" value="title" style="shape=partialRectangle;connectable=0;fillColor=none;top=0;left=0;bottom=0;right=0;align=left;spacingLeft=6;overflow=hidden;whiteSpace=wrap;html=1;" vertex="1" parent="6fytZfHo-FX2xhKZQ4Zg-79">
          <mxGeometry x="30" width="210" height="30" as="geometry">
            <mxRectangle width="210" height="30" as="alternateBounds" />
          </mxGeometry>
        </mxCell>
        <mxCell id="6fytZfHo-FX2xhKZQ4Zg-127" value="" style="group" vertex="1" connectable="0" parent="1">
          <mxGeometry x="70" y="560" width="210" height="90" as="geometry" />
        </mxCell>
        <mxCell id="6fytZfHo-FX2xhKZQ4Zg-84" value="isbn" style="shape=partialRectangle;connectable=0;fillColor=none;top=0;left=0;bottom=0;right=0;align=left;spacingLeft=6;overflow=hidden;whiteSpace=wrap;html=1;" vertex="1" parent="6fytZfHo-FX2xhKZQ4Zg-127">
          <mxGeometry width="210" height="30" as="geometry">
            <mxRectangle width="210" height="30" as="alternateBounds" />
          </mxGeometry>
        </mxCell>
        <mxCell id="6fytZfHo-FX2xhKZQ4Zg-85" value="price" style="shape=partialRectangle;connectable=0;fillColor=none;top=0;left=0;bottom=0;right=0;align=left;spacingLeft=6;overflow=hidden;whiteSpace=wrap;html=1;" vertex="1" parent="6fytZfHo-FX2xhKZQ4Zg-127">
          <mxGeometry y="30" width="210" height="30" as="geometry">
            <mxRectangle width="210" height="30" as="alternateBounds" />
          </mxGeometry>
        </mxCell>
        <mxCell id="6fytZfHo-FX2xhKZQ4Zg-86" value="stock" style="shape=partialRectangle;connectable=0;fillColor=none;top=0;left=0;bottom=0;right=0;align=left;spacingLeft=6;overflow=hidden;whiteSpace=wrap;html=1;" vertex="1" parent="6fytZfHo-FX2xhKZQ4Zg-127">
          <mxGeometry y="60" width="210" height="30" as="geometry">
            <mxRectangle width="210" height="30" as="alternateBounds" />
          </mxGeometry>
        </mxCell>
        <mxCell id="6fytZfHo-FX2xhKZQ4Zg-107" value="" style="endArrow=none;html=1;rounded=0;" edge="1" parent="6fytZfHo-FX2xhKZQ4Zg-127">
          <mxGeometry width="50" height="50" relative="1" as="geometry">
            <mxPoint y="90" as="sourcePoint" />
            <mxPoint as="targetPoint" />
          </mxGeometry>
        </mxCell>
        <mxCell id="7yqjaefxmZHhMjh67zaD-17" value="created_at" style="shape=partialRectangle;connectable=0;fillColor=none;top=0;left=0;bottom=0;right=0;align=left;spacingLeft=6;overflow=hidden;whiteSpace=wrap;html=1;" vertex="1" parent="1">
          <mxGeometry x="70" y="650" width="210" height="30" as="geometry">
            <mxRectangle width="210" height="30" as="alternateBounds" />
          </mxGeometry>
        </mxCell>
        <mxCell id="7yqjaefxmZHhMjh67zaD-19" value="" style="endArrow=none;html=1;rounded=0;" edge="1" parent="1">
          <mxGeometry width="50" height="50" relative="1" as="geometry">
            <mxPoint x="70" y="680" as="sourcePoint" />
            <mxPoint x="70" y="630" as="targetPoint" />
          </mxGeometry>
        </mxCell>
        <mxCell id="W_eK2zmT97ttqeAv3BiO-49" style="edgeStyle=orthogonalEdgeStyle;rounded=0;orthogonalLoop=1;jettySize=auto;html=1;exitX=0.5;exitY=0;exitDx=0;exitDy=0;endArrow=ERzeroToMany;endFill=0;startArrow=ERmandOne;startFill=0;" edge="1" parent="1" source="W_eK2zmT97ttqeAv3BiO-35">
          <mxGeometry relative="1" as="geometry">
            <mxPoint x="160" y="680" as="targetPoint" />
          </mxGeometry>
        </mxCell>
        <mxCell id="W_eK2zmT97ttqeAv3BiO-35" value="authors" style="shape=table;startSize=30;container=1;collapsible=1;childLayout=tableLayout;fixedRows=1;rowLines=0;fontStyle=1;align=center;resizeLast=1;html=1;" vertex="1" parent="1">
          <mxGeometry x="40" y="750" width="240" height="150" as="geometry" />
        </mxCell>
        <mxCell id="W_eK2zmT97ttqeAv3BiO-36" value="" style="shape=tableRow;horizontal=0;startSize=0;swimlaneHead=0;swimlaneBody=0;fillColor=none;collapsible=0;dropTarget=0;points=[[0,0.5],[1,0.5]];portConstraint=eastwest;top=0;left=0;right=0;bottom=1;" vertex="1" parent="W_eK2zmT97ttqeAv3BiO-35">
          <mxGeometry y="30" width="240" height="30" as="geometry" />
        </mxCell>
        <mxCell id="W_eK2zmT97ttqeAv3BiO-37" value="PK" style="shape=partialRectangle;connectable=0;fillColor=none;top=0;left=0;bottom=0;right=0;fontStyle=1;overflow=hidden;whiteSpace=wrap;html=1;" vertex="1" parent="W_eK2zmT97ttqeAv3BiO-36">
          <mxGeometry width="30" height="30" as="geometry">
            <mxRectangle width="30" height="30" as="alternateBounds" />
          </mxGeometry>
        </mxCell>
        <mxCell id="W_eK2zmT97ttqeAv3BiO-38" value="ID" style="shape=partialRectangle;connectable=0;fillColor=none;top=0;left=0;bottom=0;right=0;align=left;spacingLeft=6;fontStyle=5;overflow=hidden;whiteSpace=wrap;html=1;" vertex="1" parent="W_eK2zmT97ttqeAv3BiO-36">
          <mxGeometry x="30" width="210" height="30" as="geometry">
            <mxRectangle width="210" height="30" as="alternateBounds" />
          </mxGeometry>
        </mxCell>
        <mxCell id="W_eK2zmT97ttqeAv3BiO-39" value="" style="shape=tableRow;horizontal=0;startSize=0;swimlaneHead=0;swimlaneBody=0;fillColor=none;collapsible=0;dropTarget=0;points=[[0,0.5],[1,0.5]];portConstraint=eastwest;top=0;left=0;right=0;bottom=0;" vertex="1" parent="W_eK2zmT97ttqeAv3BiO-35">
          <mxGeometry y="60" width="240" height="30" as="geometry" />
        </mxCell>
        <mxCell id="W_eK2zmT97ttqeAv3BiO-40" value="" style="shape=partialRectangle;connectable=0;fillColor=none;top=0;left=0;bottom=0;right=0;editable=1;overflow=hidden;whiteSpace=wrap;html=1;" vertex="1" parent="W_eK2zmT97ttqeAv3BiO-39">
          <mxGeometry width="30" height="30" as="geometry">
            <mxRectangle width="30" height="30" as="alternateBounds" />
          </mxGeometry>
        </mxCell>
        <mxCell id="W_eK2zmT97ttqeAv3BiO-41" value="name" style="shape=partialRectangle;connectable=0;fillColor=none;top=0;left=0;bottom=0;right=0;align=left;spacingLeft=6;overflow=hidden;whiteSpace=wrap;html=1;" vertex="1" parent="W_eK2zmT97ttqeAv3BiO-39">
          <mxGeometry x="30" width="210" height="30" as="geometry">
            <mxRectangle width="210" height="30" as="alternateBounds" />
          </mxGeometry>
        </mxCell>
        <mxCell id="W_eK2zmT97ttqeAv3BiO-42" value="" style="shape=tableRow;horizontal=0;startSize=0;swimlaneHead=0;swimlaneBody=0;fillColor=none;collapsible=0;dropTarget=0;points=[[0,0.5],[1,0.5]];portConstraint=eastwest;top=0;left=0;right=0;bottom=0;" vertex="1" parent="W_eK2zmT97ttqeAv3BiO-35">
          <mxGeometry y="90" width="240" height="30" as="geometry" />
        </mxCell>
        <mxCell id="W_eK2zmT97ttqeAv3BiO-43" value="" style="shape=partialRectangle;connectable=0;fillColor=none;top=0;left=0;bottom=0;right=0;editable=1;overflow=hidden;whiteSpace=wrap;html=1;" vertex="1" parent="W_eK2zmT97ttqeAv3BiO-42">
          <mxGeometry width="30" height="30" as="geometry">
            <mxRectangle width="30" height="30" as="alternateBounds" />
          </mxGeometry>
        </mxCell>
        <mxCell id="W_eK2zmT97ttqeAv3BiO-44" value="profile" style="shape=partialRectangle;connectable=0;fillColor=none;top=0;left=0;bottom=0;right=0;align=left;spacingLeft=6;overflow=hidden;whiteSpace=wrap;html=1;" vertex="1" parent="W_eK2zmT97ttqeAv3BiO-42">
          <mxGeometry x="30" width="210" height="30" as="geometry">
            <mxRectangle width="210" height="30" as="alternateBounds" />
          </mxGeometry>
        </mxCell>
        <mxCell id="W_eK2zmT97ttqeAv3BiO-51" value="created_at" style="shape=partialRectangle;connectable=0;fillColor=none;top=0;left=0;bottom=0;right=0;align=left;spacingLeft=6;overflow=hidden;whiteSpace=wrap;html=1;" vertex="1" parent="1">
          <mxGeometry x="70" y="870" width="210" height="30" as="geometry">
            <mxRectangle width="210" height="30" as="alternateBounds" />
          </mxGeometry>
        </mxCell>
        <mxCell id="W_eK2zmT97ttqeAv3BiO-53" value="" style="endArrow=none;html=1;rounded=0;" edge="1" parent="1">
          <mxGeometry width="50" height="50" relative="1" as="geometry">
            <mxPoint x="70" y="900" as="sourcePoint" />
            <mxPoint x="70" y="850" as="targetPoint" />
          </mxGeometry>
        </mxCell>
        <mxCell id="7yqjaefxmZHhMjh67zaD-22" value="unit_price" style="shape=partialRectangle;connectable=0;fillColor=none;top=0;left=0;bottom=0;right=0;align=left;spacingLeft=6;overflow=hidden;whiteSpace=wrap;html=1;" vertex="1" parent="1">
          <mxGeometry x="390" y="830" width="210" height="30" as="geometry">
            <mxRectangle width="210" height="30" as="alternateBounds" />
          </mxGeometry>
        </mxCell>
        <mxCell id="7yqjaefxmZHhMjh67zaD-24" value="" style="endArrow=none;html=1;rounded=0;" edge="1" parent="1">
          <mxGeometry width="50" height="50" relative="1" as="geometry">
            <mxPoint x="390" y="860" as="sourcePoint" />
            <mxPoint x="390" y="840" as="targetPoint" />
          </mxGeometry>
        </mxCell>
        <mxCell id="6fytZfHo-FX2xhKZQ4Zg-110" value="order_items" style="shape=table;startSize=30;container=1;collapsible=1;childLayout=tableLayout;fixedRows=1;rowLines=0;fontStyle=1;align=center;resizeLast=1;html=1;" vertex="1" parent="1">
          <mxGeometry x="360" y="680" width="240" height="210" as="geometry" />
        </mxCell>
        <mxCell id="6fytZfHo-FX2xhKZQ4Zg-111" value="" style="shape=tableRow;horizontal=0;startSize=0;swimlaneHead=0;swimlaneBody=0;fillColor=none;collapsible=0;dropTarget=0;points=[[0,0.5],[1,0.5]];portConstraint=eastwest;top=0;left=0;right=0;bottom=1;" vertex="1" parent="6fytZfHo-FX2xhKZQ4Zg-110">
          <mxGeometry y="30" width="240" height="30" as="geometry" />
        </mxCell>
        <mxCell id="6fytZfHo-FX2xhKZQ4Zg-112" value="PK" style="shape=partialRectangle;connectable=0;fillColor=none;top=0;left=0;bottom=0;right=0;fontStyle=1;overflow=hidden;whiteSpace=wrap;html=1;" vertex="1" parent="6fytZfHo-FX2xhKZQ4Zg-111">
          <mxGeometry width="30" height="30" as="geometry">
            <mxRectangle width="30" height="30" as="alternateBounds" />
          </mxGeometry>
        </mxCell>
        <mxCell id="6fytZfHo-FX2xhKZQ4Zg-113" value="ID" style="shape=partialRectangle;connectable=0;fillColor=none;top=0;left=0;bottom=0;right=0;align=left;spacingLeft=6;fontStyle=5;overflow=hidden;whiteSpace=wrap;html=1;" vertex="1" parent="6fytZfHo-FX2xhKZQ4Zg-111">
          <mxGeometry x="30" width="210" height="30" as="geometry">
            <mxRectangle width="210" height="30" as="alternateBounds" />
          </mxGeometry>
        </mxCell>
        <mxCell id="6fytZfHo-FX2xhKZQ4Zg-114" value="" style="shape=tableRow;horizontal=0;startSize=0;swimlaneHead=0;swimlaneBody=0;fillColor=none;collapsible=0;dropTarget=0;points=[[0,0.5],[1,0.5]];portConstraint=eastwest;top=0;left=0;right=0;bottom=0;" vertex="1" parent="6fytZfHo-FX2xhKZQ4Zg-110">
          <mxGeometry y="60" width="240" height="30" as="geometry" />
        </mxCell>
        <mxCell id="6fytZfHo-FX2xhKZQ4Zg-115" value="FK" style="shape=partialRectangle;connectable=0;fillColor=none;top=0;left=0;bottom=0;right=0;editable=1;overflow=hidden;whiteSpace=wrap;html=1;" vertex="1" parent="6fytZfHo-FX2xhKZQ4Zg-114">
          <mxGeometry width="30" height="30" as="geometry">
            <mxRectangle width="30" height="30" as="alternateBounds" />
          </mxGeometry>
        </mxCell>
        <mxCell id="6fytZfHo-FX2xhKZQ4Zg-116" value="order_id" style="shape=partialRectangle;connectable=0;fillColor=none;top=0;left=0;bottom=0;right=0;align=left;spacingLeft=6;overflow=hidden;whiteSpace=wrap;html=1;" vertex="1" parent="6fytZfHo-FX2xhKZQ4Zg-114">
          <mxGeometry x="30" width="210" height="30" as="geometry">
            <mxRectangle width="210" height="30" as="alternateBounds" />
          </mxGeometry>
        </mxCell>
        <mxCell id="6fytZfHo-FX2xhKZQ4Zg-117" value="" style="shape=tableRow;horizontal=0;startSize=0;swimlaneHead=0;swimlaneBody=0;fillColor=none;collapsible=0;dropTarget=0;points=[[0,0.5],[1,0.5]];portConstraint=eastwest;top=0;left=0;right=0;bottom=0;" vertex="1" parent="6fytZfHo-FX2xhKZQ4Zg-110">
          <mxGeometry y="90" width="240" height="30" as="geometry" />
        </mxCell>
        <mxCell id="6fytZfHo-FX2xhKZQ4Zg-118" value="FK" style="shape=partialRectangle;connectable=0;fillColor=none;top=0;left=0;bottom=0;right=0;editable=1;overflow=hidden;whiteSpace=wrap;html=1;" vertex="1" parent="6fytZfHo-FX2xhKZQ4Zg-117">
          <mxGeometry width="30" height="30" as="geometry">
            <mxRectangle width="30" height="30" as="alternateBounds" />
          </mxGeometry>
        </mxCell>
        <mxCell id="6fytZfHo-FX2xhKZQ4Zg-119" value="book_id" style="shape=partialRectangle;connectable=0;fillColor=none;top=0;left=0;bottom=0;right=0;align=left;spacingLeft=6;overflow=hidden;whiteSpace=wrap;html=1;" vertex="1" parent="6fytZfHo-FX2xhKZQ4Zg-117">
          <mxGeometry x="30" width="210" height="30" as="geometry">
            <mxRectangle width="210" height="30" as="alternateBounds" />
          </mxGeometry>
        </mxCell>
        <mxCell id="6fytZfHo-FX2xhKZQ4Zg-82" value="quantity" style="shape=partialRectangle;connectable=0;fillColor=none;top=0;left=0;bottom=0;right=0;align=left;spacingLeft=6;overflow=hidden;whiteSpace=wrap;html=1;" vertex="1" parent="1">
          <mxGeometry x="390" y="800" width="210" height="30" as="geometry">
            <mxRectangle width="210" height="30" as="alternateBounds" />
          </mxGeometry>
        </mxCell>
        <mxCell id="6fytZfHo-FX2xhKZQ4Zg-123" value="" style="endArrow=none;html=1;rounded=0;" edge="1" parent="1">
          <mxGeometry width="50" height="50" relative="1" as="geometry">
            <mxPoint x="390" y="890" as="sourcePoint" />
            <mxPoint x="390" y="792.5" as="targetPoint" />
          </mxGeometry>
        </mxCell>
        <mxCell id="OWedmYzQTYGByb18LuTQ-1" value="created_at" style="shape=partialRectangle;connectable=0;fillColor=none;top=0;left=0;bottom=0;right=0;align=left;spacingLeft=6;overflow=hidden;whiteSpace=wrap;html=1;" vertex="1" parent="1">
          <mxGeometry x="390" y="860" width="210" height="30" as="geometry">
            <mxRectangle width="210" height="30" as="alternateBounds" />
          </mxGeometry>
        </mxCell>
        <mxCell id="6fytZfHo-FX2xhKZQ4Zg-60" value="orders" style="shape=table;startSize=30;container=1;collapsible=1;childLayout=tableLayout;fixedRows=1;rowLines=0;fontStyle=1;align=center;resizeLast=1;html=1;" vertex="1" parent="1">
          <mxGeometry x="360" y="360" width="240" height="150" as="geometry" />
        </mxCell>
        <mxCell id="6fytZfHo-FX2xhKZQ4Zg-61" value="" style="shape=tableRow;horizontal=0;startSize=0;swimlaneHead=0;swimlaneBody=0;fillColor=none;collapsible=0;dropTarget=0;points=[[0,0.5],[1,0.5]];portConstraint=eastwest;top=0;left=0;right=0;bottom=1;" vertex="1" parent="6fytZfHo-FX2xhKZQ4Zg-60">
          <mxGeometry y="30" width="240" height="30" as="geometry" />
        </mxCell>
        <mxCell id="6fytZfHo-FX2xhKZQ4Zg-62" value="PK" style="shape=partialRectangle;connectable=0;fillColor=none;top=0;left=0;bottom=0;right=0;fontStyle=1;overflow=hidden;whiteSpace=wrap;html=1;" vertex="1" parent="6fytZfHo-FX2xhKZQ4Zg-61">
          <mxGeometry width="30" height="30" as="geometry">
            <mxRectangle width="30" height="30" as="alternateBounds" />
          </mxGeometry>
        </mxCell>
        <mxCell id="6fytZfHo-FX2xhKZQ4Zg-63" value="ID" style="shape=partialRectangle;connectable=0;fillColor=none;top=0;left=0;bottom=0;right=0;align=left;spacingLeft=6;fontStyle=5;overflow=hidden;whiteSpace=wrap;html=1;" vertex="1" parent="6fytZfHo-FX2xhKZQ4Zg-61">
          <mxGeometry x="30" width="210" height="30" as="geometry">
            <mxRectangle width="210" height="30" as="alternateBounds" />
          </mxGeometry>
        </mxCell>
        <mxCell id="6fytZfHo-FX2xhKZQ4Zg-64" value="" style="shape=tableRow;horizontal=0;startSize=0;swimlaneHead=0;swimlaneBody=0;fillColor=none;collapsible=0;dropTarget=0;points=[[0,0.5],[1,0.5]];portConstraint=eastwest;top=0;left=0;right=0;bottom=0;" vertex="1" parent="6fytZfHo-FX2xhKZQ4Zg-60">
          <mxGeometry y="60" width="240" height="30" as="geometry" />
        </mxCell>
        <mxCell id="6fytZfHo-FX2xhKZQ4Zg-65" value="FK" style="shape=partialRectangle;connectable=0;fillColor=none;top=0;left=0;bottom=0;right=0;editable=1;overflow=hidden;whiteSpace=wrap;html=1;" vertex="1" parent="6fytZfHo-FX2xhKZQ4Zg-64">
          <mxGeometry width="30" height="30" as="geometry">
            <mxRectangle width="30" height="30" as="alternateBounds" />
          </mxGeometry>
        </mxCell>
        <mxCell id="6fytZfHo-FX2xhKZQ4Zg-66" value="address_id" style="shape=partialRectangle;connectable=0;fillColor=none;top=0;left=0;bottom=0;right=0;align=left;spacingLeft=6;overflow=hidden;whiteSpace=wrap;html=1;" vertex="1" parent="6fytZfHo-FX2xhKZQ4Zg-64">
          <mxGeometry x="30" width="210" height="30" as="geometry">
            <mxRectangle width="210" height="30" as="alternateBounds" />
          </mxGeometry>
        </mxCell>
        <mxCell id="6fytZfHo-FX2xhKZQ4Zg-67" value="" style="shape=tableRow;horizontal=0;startSize=0;swimlaneHead=0;swimlaneBody=0;fillColor=none;collapsible=0;dropTarget=0;points=[[0,0.5],[1,0.5]];portConstraint=eastwest;top=0;left=0;right=0;bottom=0;" vertex="1" parent="6fytZfHo-FX2xhKZQ4Zg-60">
          <mxGeometry y="90" width="240" height="30" as="geometry" />
        </mxCell>
        <mxCell id="6fytZfHo-FX2xhKZQ4Zg-68" value="" style="shape=partialRectangle;connectable=0;fillColor=none;top=0;left=0;bottom=0;right=0;editable=1;overflow=hidden;whiteSpace=wrap;html=1;" vertex="1" parent="6fytZfHo-FX2xhKZQ4Zg-67">
          <mxGeometry width="30" height="30" as="geometry">
            <mxRectangle width="30" height="30" as="alternateBounds" />
          </mxGeometry>
        </mxCell>
        <mxCell id="6fytZfHo-FX2xhKZQ4Zg-69" value="total_price" style="shape=partialRectangle;connectable=0;fillColor=none;top=0;left=0;bottom=0;right=0;align=left;spacingLeft=6;overflow=hidden;whiteSpace=wrap;html=1;" vertex="1" parent="6fytZfHo-FX2xhKZQ4Zg-67">
          <mxGeometry x="30" width="210" height="30" as="geometry">
            <mxRectangle width="210" height="30" as="alternateBounds" />
          </mxGeometry>
        </mxCell>
        <mxCell id="6fytZfHo-FX2xhKZQ4Zg-124" value="" style="shape=partialRectangle;connectable=0;fillColor=none;top=0;left=0;bottom=0;right=0;align=left;spacingLeft=6;overflow=hidden;whiteSpace=wrap;html=1;" vertex="1" parent="1">
          <mxGeometry x="390" y="484.29" width="210" height="25" as="geometry">
            <mxRectangle width="210" height="30" as="alternateBounds" />
          </mxGeometry>
        </mxCell>
        <mxCell id="7yqjaefxmZHhMjh67zaD-27" value="created_at" style="shape=partialRectangle;connectable=0;fillColor=none;top=0;left=0;bottom=0;right=0;align=left;spacingLeft=6;overflow=hidden;whiteSpace=wrap;html=1;" vertex="1" parent="1">
          <mxGeometry x="390" y="481.43" width="210" height="30.71" as="geometry">
            <mxRectangle width="210" height="30" as="alternateBounds" />
          </mxGeometry>
        </mxCell>
        <mxCell id="7yqjaefxmZHhMjh67zaD-29" value="" style="endArrow=none;html=1;rounded=0;" edge="1" parent="1">
          <mxGeometry width="50" height="50" relative="1" as="geometry">
            <mxPoint x="390" y="510" as="sourcePoint" />
            <mxPoint x="390" y="480.14" as="targetPoint" />
          </mxGeometry>
        </mxCell>
        <mxCell id="6fytZfHo-FX2xhKZQ4Zg-2" value="users" style="shape=table;startSize=30;container=1;collapsible=1;childLayout=tableLayout;fixedRows=1;rowLines=0;fontStyle=1;align=center;resizeLast=1;html=1;" vertex="1" parent="1">
          <mxGeometry x="360" y="110" width="240" height="150" as="geometry" />
        </mxCell>
        <mxCell id="6fytZfHo-FX2xhKZQ4Zg-3" value="" style="shape=tableRow;horizontal=0;startSize=0;swimlaneHead=0;swimlaneBody=0;fillColor=none;collapsible=0;dropTarget=0;points=[[0,0.5],[1,0.5]];portConstraint=eastwest;top=0;left=0;right=0;bottom=1;" vertex="1" parent="6fytZfHo-FX2xhKZQ4Zg-2">
          <mxGeometry y="30" width="240" height="30" as="geometry" />
        </mxCell>
        <mxCell id="6fytZfHo-FX2xhKZQ4Zg-4" value="PK" style="shape=partialRectangle;connectable=0;fillColor=none;top=0;left=0;bottom=0;right=0;fontStyle=1;overflow=hidden;whiteSpace=wrap;html=1;" vertex="1" parent="6fytZfHo-FX2xhKZQ4Zg-3">
          <mxGeometry width="30" height="30" as="geometry">
            <mxRectangle width="30" height="30" as="alternateBounds" />
          </mxGeometry>
        </mxCell>
        <mxCell id="6fytZfHo-FX2xhKZQ4Zg-5" value="ID" style="shape=partialRectangle;connectable=0;fillColor=none;top=0;left=0;bottom=0;right=0;align=left;spacingLeft=6;fontStyle=5;overflow=hidden;whiteSpace=wrap;html=1;" vertex="1" parent="6fytZfHo-FX2xhKZQ4Zg-3">
          <mxGeometry x="30" width="210" height="30" as="geometry">
            <mxRectangle width="210" height="30" as="alternateBounds" />
          </mxGeometry>
        </mxCell>
        <mxCell id="6fytZfHo-FX2xhKZQ4Zg-6" value="" style="shape=tableRow;horizontal=0;startSize=0;swimlaneHead=0;swimlaneBody=0;fillColor=none;collapsible=0;dropTarget=0;points=[[0,0.5],[1,0.5]];portConstraint=eastwest;top=0;left=0;right=0;bottom=0;" vertex="1" parent="6fytZfHo-FX2xhKZQ4Zg-2">
          <mxGeometry y="60" width="240" height="30" as="geometry" />
        </mxCell>
        <mxCell id="6fytZfHo-FX2xhKZQ4Zg-7" value="" style="shape=partialRectangle;connectable=0;fillColor=none;top=0;left=0;bottom=0;right=0;editable=1;overflow=hidden;whiteSpace=wrap;html=1;" vertex="1" parent="6fytZfHo-FX2xhKZQ4Zg-6">
          <mxGeometry width="30" height="30" as="geometry">
            <mxRectangle width="30" height="30" as="alternateBounds" />
          </mxGeometry>
        </mxCell>
        <mxCell id="6fytZfHo-FX2xhKZQ4Zg-8" value="name" style="shape=partialRectangle;connectable=0;fillColor=none;top=0;left=0;bottom=0;right=0;align=left;spacingLeft=6;overflow=hidden;whiteSpace=wrap;html=1;" vertex="1" parent="6fytZfHo-FX2xhKZQ4Zg-6">
          <mxGeometry x="30" width="210" height="30" as="geometry">
            <mxRectangle width="210" height="30" as="alternateBounds" />
          </mxGeometry>
        </mxCell>
        <mxCell id="6fytZfHo-FX2xhKZQ4Zg-9" value="" style="shape=tableRow;horizontal=0;startSize=0;swimlaneHead=0;swimlaneBody=0;fillColor=none;collapsible=0;dropTarget=0;points=[[0,0.5],[1,0.5]];portConstraint=eastwest;top=0;left=0;right=0;bottom=0;" vertex="1" parent="6fytZfHo-FX2xhKZQ4Zg-2">
          <mxGeometry y="90" width="240" height="30" as="geometry" />
        </mxCell>
        <mxCell id="6fytZfHo-FX2xhKZQ4Zg-10" value="" style="shape=partialRectangle;connectable=0;fillColor=none;top=0;left=0;bottom=0;right=0;editable=1;overflow=hidden;whiteSpace=wrap;html=1;" vertex="1" parent="6fytZfHo-FX2xhKZQ4Zg-9">
          <mxGeometry width="30" height="30" as="geometry">
            <mxRectangle width="30" height="30" as="alternateBounds" />
          </mxGeometry>
        </mxCell>
        <mxCell id="6fytZfHo-FX2xhKZQ4Zg-11" value="email" style="shape=partialRectangle;connectable=0;fillColor=none;top=0;left=0;bottom=0;right=0;align=left;spacingLeft=6;overflow=hidden;whiteSpace=wrap;html=1;" vertex="1" parent="6fytZfHo-FX2xhKZQ4Zg-9">
          <mxGeometry x="30" width="210" height="30" as="geometry">
            <mxRectangle width="210" height="30" as="alternateBounds" />
          </mxGeometry>
        </mxCell>
        <mxCell id="7yqjaefxmZHhMjh67zaD-33" value="created_at" style="shape=partialRectangle;connectable=0;fillColor=none;top=0;left=0;bottom=0;right=0;align=left;spacingLeft=6;overflow=hidden;whiteSpace=wrap;html=1;" vertex="1" parent="1">
          <mxGeometry x="390" y="230" width="210" height="30" as="geometry">
            <mxRectangle width="210" height="30" as="alternateBounds" />
          </mxGeometry>
        </mxCell>
        <mxCell id="7yqjaefxmZHhMjh67zaD-35" value="" style="endArrow=none;html=1;rounded=0;" edge="1" parent="1">
          <mxGeometry width="50" height="50" relative="1" as="geometry">
            <mxPoint x="390" y="260" as="sourcePoint" />
            <mxPoint x="390" y="210" as="targetPoint" />
          </mxGeometry>
        </mxCell>
        <mxCell id="RPULxNUFJkbllqwDgE0V-21" style="edgeStyle=orthogonalEdgeStyle;rounded=0;orthogonalLoop=1;jettySize=auto;html=1;exitX=0;exitY=0.5;exitDx=0;exitDy=0;entryX=1;entryY=0.5;entryDx=0;entryDy=0;endArrow=ERmandOne;endFill=0;startArrow=ERzeroToMany;startFill=0;" edge="1" parent="1" source="RPULxNUFJkbllqwDgE0V-4" target="6fytZfHo-FX2xhKZQ4Zg-9">
          <mxGeometry relative="1" as="geometry" />
        </mxCell>
        <mxCell id="OWedmYzQTYGByb18LuTQ-2" value="・ordersテーブルにはuser_idカラムは作成しない。理由はaddressesテーブル経由でuser_idが取得できるため" style="rounded=0;whiteSpace=wrap;html=1;align=left;perimeterSpacing=1;spacingLeft=5;" vertex="1" parent="1">
          <mxGeometry x="360" y="530" width="140" height="90" as="geometry" />
        </mxCell>
        <mxCell id="RPULxNUFJkbllqwDgE0V-35" value="&lt;div&gt;　監査用にデータを保存するテーブル&lt;br&gt;・address_id&lt;br&gt;　元のaddressテーブルのidを利用。&lt;span style=&quot;background-color: transparent; color: light-dark(rgb(0, 0, 0), rgb(255, 255, 255));&quot;&gt;　&lt;br&gt;元データは削除される想定のため&lt;br&gt;FK制約は付与しない&lt;/span&gt;&lt;/div&gt;&lt;div&gt;&lt;br&gt;・archived_reason&lt;/div&gt;&lt;div&gt;　enum で管理。以下のようなイメージで設定したい&lt;br&gt;&lt;font style=&quot;font-size: 7px;&quot;&gt;&amp;nbsp;&amp;nbsp;&lt;/font&gt;&lt;br&gt;&#39;address_created&#39;&lt;span style=&quot;background-color: transparent; color: light-dark(rgb(0, 0, 0), rgb(255, 255, 255));&quot;&gt;,&#39;address_updated&#39;&lt;/span&gt;&lt;span style=&quot;background-color: transparent; color: light-dark(rgb(0, 0, 0), rgb(255, 255, 255));&quot;&gt;,&lt;br&gt;&lt;/span&gt;&lt;span style=&quot;background-color: transparent; color: light-dark(rgb(0, 0, 0), rgb(255, 255, 255));&quot;&gt;&#39;address_deleted&#39;&lt;/span&gt;&lt;span style=&quot;background-color: transparent; color: light-dark(rgb(0, 0, 0), rgb(255, 255, 255));&quot;&gt;&amp;nbsp;&#39;order_placed&#39;&amp;nbsp;&lt;/span&gt;&lt;span style=&quot;background-color: transparent; color: light-dark(rgb(0, 0, 0), rgb(255, 255, 255));&quot;&gt;など&lt;/span&gt;&lt;/div&gt;&lt;div&gt;&lt;font style=&quot;font-size: 6px;&quot;&gt;　&lt;/font&gt;&lt;/div&gt;&lt;div&gt;・&lt;span style=&quot;background-color: transparent; color: light-dark(rgb(0, 0, 0), rgb(255, 255, 255));&quot;&gt;archived_by&lt;/span&gt;&lt;/div&gt;&lt;div&gt;&lt;span style=&quot;background-color: transparent; color: light-dark(rgb(0, 0, 0), rgb(255, 255, 255));&quot;&gt;　 0はsystem, 他はuser_id が入る&lt;/span&gt;&lt;/div&gt;" style="rounded=0;whiteSpace=wrap;html=1;align=left;perimeterSpacing=1;spacingLeft=5;" vertex="1" parent="1">
          <mxGeometry x="950" y="480" width="220" height="230" as="geometry" />
        </mxCell>
        <mxCell id="RPULxNUFJkbllqwDgE0V-37" value="" style="group" connectable="0" vertex="1" parent="1">
          <mxGeometry x="680" y="480" width="240" height="450" as="geometry" />
        </mxCell>
        <mxCell id="RPULxNUFJkbllqwDgE0V-26" value="" style="group" connectable="0" vertex="1" parent="RPULxNUFJkbllqwDgE0V-37">
          <mxGeometry width="240" height="450" as="geometry" />
        </mxCell>
        <mxCell id="RPULxNUFJkbllqwDgE0V-39" style="edgeStyle=orthogonalEdgeStyle;rounded=0;orthogonalLoop=1;jettySize=auto;html=1;exitX=0.5;exitY=0;exitDx=0;exitDy=0;startArrow=ERoneToMany;startFill=0;endArrow=ERmandOne;endFill=0;" edge="1" parent="RPULxNUFJkbllqwDgE0V-26" source="RPULxNUFJkbllqwDgE0V-3">
          <mxGeometry relative="1" as="geometry">
            <mxPoint x="120" y="-100" as="targetPoint" />
          </mxGeometry>
        </mxCell>
        <mxCell id="RPULxNUFJkbllqwDgE0V-3" value="&lt;div style=&quot;text-align: left;&quot;&gt;&lt;span style=&quot;text-wrap-mode: wrap;&quot;&gt;order_addresses&lt;/span&gt;&lt;/div&gt;" style="shape=table;startSize=30;container=1;collapsible=1;childLayout=tableLayout;fixedRows=1;rowLines=0;fontStyle=1;align=center;resizeLast=1;html=1;" vertex="1" parent="RPULxNUFJkbllqwDgE0V-26">
          <mxGeometry width="240" height="420" as="geometry" />
        </mxCell>
        <mxCell id="RPULxNUFJkbllqwDgE0V-4" value="" style="shape=tableRow;horizontal=0;startSize=0;swimlaneHead=0;swimlaneBody=0;fillColor=none;collapsible=0;dropTarget=0;points=[[0,0.5],[1,0.5]];portConstraint=eastwest;top=0;left=0;right=0;bottom=1;" vertex="1" parent="RPULxNUFJkbllqwDgE0V-3">
          <mxGeometry y="30" width="240" height="30" as="geometry" />
        </mxCell>
        <mxCell id="RPULxNUFJkbllqwDgE0V-5" value="PK" style="shape=partialRectangle;connectable=0;fillColor=none;top=0;left=0;bottom=0;right=0;fontStyle=1;overflow=hidden;whiteSpace=wrap;html=1;" vertex="1" parent="RPULxNUFJkbllqwDgE0V-4">
          <mxGeometry width="30.000000000000455" height="30" as="geometry">
            <mxRectangle width="30.000000000000455" height="30" as="alternateBounds" />
          </mxGeometry>
        </mxCell>
        <mxCell id="RPULxNUFJkbllqwDgE0V-6" value="ID" style="shape=partialRectangle;connectable=0;fillColor=none;top=0;left=0;bottom=0;right=0;align=left;spacingLeft=6;fontStyle=5;overflow=hidden;whiteSpace=wrap;html=1;" vertex="1" parent="RPULxNUFJkbllqwDgE0V-4">
          <mxGeometry x="30.000000000000455" width="209.99999999999955" height="30" as="geometry">
            <mxRectangle width="209.99999999999955" height="30" as="alternateBounds" />
          </mxGeometry>
        </mxCell>
        <mxCell id="RPULxNUFJkbllqwDgE0V-7" value="" style="shape=tableRow;horizontal=0;startSize=0;swimlaneHead=0;swimlaneBody=0;fillColor=none;collapsible=0;dropTarget=0;points=[[0,0.5],[1,0.5]];portConstraint=eastwest;top=0;left=0;right=0;bottom=0;" vertex="1" parent="RPULxNUFJkbllqwDgE0V-3">
          <mxGeometry y="60" width="240" height="30" as="geometry" />
        </mxCell>
        <mxCell id="RPULxNUFJkbllqwDgE0V-8" value="FK" style="shape=partialRectangle;connectable=0;fillColor=none;top=0;left=0;bottom=0;right=0;editable=1;overflow=hidden;whiteSpace=wrap;html=1;" vertex="1" parent="RPULxNUFJkbllqwDgE0V-7">
          <mxGeometry width="30.000000000000455" height="30" as="geometry">
            <mxRectangle width="30.000000000000455" height="30" as="alternateBounds" />
          </mxGeometry>
        </mxCell>
        <mxCell id="RPULxNUFJkbllqwDgE0V-9" value="user_id" style="shape=partialRectangle;connectable=0;fillColor=none;top=0;left=0;bottom=0;right=0;align=left;spacingLeft=6;overflow=hidden;whiteSpace=wrap;html=1;" vertex="1" parent="RPULxNUFJkbllqwDgE0V-7">
          <mxGeometry x="30.000000000000455" width="209.99999999999955" height="30" as="geometry">
            <mxRectangle width="209.99999999999955" height="30" as="alternateBounds" />
          </mxGeometry>
        </mxCell>
        <mxCell id="RPULxNUFJkbllqwDgE0V-10" value="" style="shape=tableRow;horizontal=0;startSize=0;swimlaneHead=0;swimlaneBody=0;fillColor=none;collapsible=0;dropTarget=0;points=[[0,0.5],[1,0.5]];portConstraint=eastwest;top=0;left=0;right=0;bottom=0;" vertex="1" parent="RPULxNUFJkbllqwDgE0V-3">
          <mxGeometry y="90" width="240" height="30" as="geometry" />
        </mxCell>
        <mxCell id="RPULxNUFJkbllqwDgE0V-11" value="" style="shape=partialRectangle;connectable=0;fillColor=none;top=0;left=0;bottom=0;right=0;editable=1;overflow=hidden;whiteSpace=wrap;html=1;" vertex="1" parent="RPULxNUFJkbllqwDgE0V-10">
          <mxGeometry width="30.000000000000455" height="30" as="geometry">
            <mxRectangle width="30.000000000000455" height="30" as="alternateBounds" />
          </mxGeometry>
        </mxCell>
        <mxCell id="RPULxNUFJkbllqwDgE0V-12" value="" style="shape=partialRectangle;connectable=0;fillColor=none;top=0;left=0;bottom=0;right=0;align=left;spacingLeft=6;overflow=hidden;whiteSpace=wrap;html=1;" vertex="1" parent="RPULxNUFJkbllqwDgE0V-10">
          <mxGeometry x="30.000000000000455" width="209.99999999999955" height="30" as="geometry">
            <mxRectangle width="209.99999999999955" height="30" as="alternateBounds" />
          </mxGeometry>
        </mxCell>
        <mxCell id="RPULxNUFJkbllqwDgE0V-24" value="" style="endArrow=none;html=1;rounded=0;" edge="1" parent="RPULxNUFJkbllqwDgE0V-26">
          <mxGeometry width="50" height="50" relative="1" as="geometry">
            <mxPoint x="30" y="360" as="sourcePoint" />
            <mxPoint x="30" y="120" as="targetPoint" />
          </mxGeometry>
        </mxCell>
        <mxCell id="RPULxNUFJkbllqwDgE0V-23" value="" style="shape=partialRectangle;connectable=0;fillColor=none;top=0;left=0;bottom=0;right=0;align=left;spacingLeft=6;overflow=hidden;whiteSpace=wrap;html=1;" vertex="1" parent="RPULxNUFJkbllqwDgE0V-26">
          <mxGeometry x="30" y="90" width="210" height="30" as="geometry">
            <mxRectangle width="210" height="30" as="alternateBounds" />
          </mxGeometry>
        </mxCell>
        <mxCell id="RPULxNUFJkbllqwDgE0V-28" value="address_id" style="shape=partialRectangle;connectable=0;fillColor=none;top=0;left=0;bottom=0;right=0;align=left;spacingLeft=6;overflow=hidden;whiteSpace=wrap;html=1;" vertex="1" parent="RPULxNUFJkbllqwDgE0V-26">
          <mxGeometry x="30" y="90" width="210" height="30" as="geometry">
            <mxRectangle width="210" height="30" as="alternateBounds" />
          </mxGeometry>
        </mxCell>
        <mxCell id="RPULxNUFJkbllqwDgE0V-38" value="" style="group" connectable="0" vertex="1" parent="RPULxNUFJkbllqwDgE0V-26">
          <mxGeometry x="30" y="150" width="210" height="90" as="geometry" />
        </mxCell>
        <mxCell id="RPULxNUFJkbllqwDgE0V-31" value="archived_at" style="shape=partialRectangle;connectable=0;fillColor=none;top=0;left=0;bottom=0;right=0;align=left;spacingLeft=6;overflow=hidden;whiteSpace=wrap;html=1;" vertex="1" parent="RPULxNUFJkbllqwDgE0V-38">
          <mxGeometry y="60" width="210" height="30" as="geometry">
            <mxRectangle width="210" height="30" as="alternateBounds" />
          </mxGeometry>
        </mxCell>
        <mxCell id="RPULxNUFJkbllqwDgE0V-32" value="archived_reason" style="shape=partialRectangle;connectable=0;fillColor=none;top=0;left=0;bottom=0;right=0;align=left;spacingLeft=6;overflow=hidden;whiteSpace=wrap;html=1;" vertex="1" parent="RPULxNUFJkbllqwDgE0V-38">
          <mxGeometry width="210" height="30" as="geometry">
            <mxRectangle width="210" height="30" as="alternateBounds" />
          </mxGeometry>
        </mxCell>
        <mxCell id="RPULxNUFJkbllqwDgE0V-33" value="archived_by" style="shape=partialRectangle;connectable=0;fillColor=none;top=0;left=0;bottom=0;right=0;align=left;spacingLeft=6;overflow=hidden;whiteSpace=wrap;html=1;" vertex="1" parent="RPULxNUFJkbllqwDgE0V-38">
          <mxGeometry y="30" width="210" height="30" as="geometry">
            <mxRectangle width="210" height="30" as="alternateBounds" />
          </mxGeometry>
        </mxCell>
        <mxCell id="RPULxNUFJkbllqwDgE0V-41" value="order_id" style="shape=partialRectangle;connectable=0;fillColor=none;top=0;left=0;bottom=0;right=0;align=left;spacingLeft=6;overflow=hidden;whiteSpace=wrap;html=1;" vertex="1" parent="RPULxNUFJkbllqwDgE0V-26">
          <mxGeometry x="30" y="120" width="210" height="30" as="geometry">
            <mxRectangle width="210" height="30" as="alternateBounds" />
          </mxGeometry>
        </mxCell>
        <mxCell id="RPULxNUFJkbllqwDgE0V-43" style="edgeStyle=orthogonalEdgeStyle;rounded=0;orthogonalLoop=1;jettySize=auto;html=1;exitX=0;exitY=0.5;exitDx=0;exitDy=0;endArrow=ERzeroToOne;endFill=0;startArrow=ERmandOne;startFill=0;" edge="1" parent="RPULxNUFJkbllqwDgE0V-26" source="RPULxNUFJkbllqwDgE0V-10">
          <mxGeometry relative="1" as="geometry">
            <mxPoint x="-120" y="30" as="targetPoint" />
          </mxGeometry>
        </mxCell>
        <mxCell id="RPULxNUFJkbllqwDgE0V-18" value="created_at" style="shape=partialRectangle;connectable=0;fillColor=none;top=0;left=0;bottom=0;right=0;align=left;spacingLeft=6;overflow=hidden;whiteSpace=wrap;html=1;" vertex="1" parent="RPULxNUFJkbllqwDgE0V-26">
          <mxGeometry x="30" y="390" width="210" height="30" as="geometry">
            <mxRectangle width="210" height="30" as="alternateBounds" />
          </mxGeometry>
        </mxCell>
        <mxCell id="RPULxNUFJkbllqwDgE0V-46" value="FK" style="shape=partialRectangle;connectable=0;fillColor=none;top=0;left=0;bottom=0;right=0;editable=1;overflow=hidden;whiteSpace=wrap;html=1;" vertex="1" parent="RPULxNUFJkbllqwDgE0V-26">
          <mxGeometry y="120" width="30.000000000000455" height="30" as="geometry">
            <mxRectangle width="30.000000000000455" height="30" as="alternateBounds" />
          </mxGeometry>
        </mxCell>
        <mxCell id="W_eK2zmT97ttqeAv3BiO-7" value="&lt;div style=&quot;text-align: left;&quot;&gt;&lt;span style=&quot;text-wrap-mode: wrap;&quot;&gt;addresses&lt;/span&gt;&lt;/div&gt;" style="shape=table;startSize=30;container=1;collapsible=1;childLayout=tableLayout;fixedRows=1;rowLines=0;fontStyle=1;align=center;resizeLast=1;html=1;" vertex="1" parent="1">
          <mxGeometry x="680" y="110" width="240" height="270" as="geometry" />
        </mxCell>
        <mxCell id="W_eK2zmT97ttqeAv3BiO-8" value="" style="shape=tableRow;horizontal=0;startSize=0;swimlaneHead=0;swimlaneBody=0;fillColor=none;collapsible=0;dropTarget=0;points=[[0,0.5],[1,0.5]];portConstraint=eastwest;top=0;left=0;right=0;bottom=1;" vertex="1" parent="W_eK2zmT97ttqeAv3BiO-7">
          <mxGeometry y="30" width="240" height="30" as="geometry" />
        </mxCell>
        <mxCell id="W_eK2zmT97ttqeAv3BiO-9" value="PK" style="shape=partialRectangle;connectable=0;fillColor=none;top=0;left=0;bottom=0;right=0;fontStyle=1;overflow=hidden;whiteSpace=wrap;html=1;" vertex="1" parent="W_eK2zmT97ttqeAv3BiO-8">
          <mxGeometry width="30.000000000000455" height="30" as="geometry">
            <mxRectangle width="30.000000000000455" height="30" as="alternateBounds" />
          </mxGeometry>
        </mxCell>
        <mxCell id="W_eK2zmT97ttqeAv3BiO-10" value="ID" style="shape=partialRectangle;connectable=0;fillColor=none;top=0;left=0;bottom=0;right=0;align=left;spacingLeft=6;fontStyle=5;overflow=hidden;whiteSpace=wrap;html=1;" vertex="1" parent="W_eK2zmT97ttqeAv3BiO-8">
          <mxGeometry x="30.000000000000455" width="209.99999999999955" height="30" as="geometry">
            <mxRectangle width="209.99999999999955" height="30" as="alternateBounds" />
          </mxGeometry>
        </mxCell>
        <mxCell id="W_eK2zmT97ttqeAv3BiO-11" value="" style="shape=tableRow;horizontal=0;startSize=0;swimlaneHead=0;swimlaneBody=0;fillColor=none;collapsible=0;dropTarget=0;points=[[0,0.5],[1,0.5]];portConstraint=eastwest;top=0;left=0;right=0;bottom=0;" vertex="1" parent="W_eK2zmT97ttqeAv3BiO-7">
          <mxGeometry y="60" width="240" height="30" as="geometry" />
        </mxCell>
        <mxCell id="W_eK2zmT97ttqeAv3BiO-12" value="FK" style="shape=partialRectangle;connectable=0;fillColor=none;top=0;left=0;bottom=0;right=0;editable=1;overflow=hidden;whiteSpace=wrap;html=1;" vertex="1" parent="W_eK2zmT97ttqeAv3BiO-11">
          <mxGeometry width="30.000000000000455" height="30" as="geometry">
            <mxRectangle width="30.000000000000455" height="30" as="alternateBounds" />
          </mxGeometry>
        </mxCell>
        <mxCell id="W_eK2zmT97ttqeAv3BiO-13" value="user_id" style="shape=partialRectangle;connectable=0;fillColor=none;top=0;left=0;bottom=0;right=0;align=left;spacingLeft=6;overflow=hidden;whiteSpace=wrap;html=1;" vertex="1" parent="W_eK2zmT97ttqeAv3BiO-11">
          <mxGeometry x="30.000000000000455" width="209.99999999999955" height="30" as="geometry">
            <mxRectangle width="209.99999999999955" height="30" as="alternateBounds" />
          </mxGeometry>
        </mxCell>
        <mxCell id="W_eK2zmT97ttqeAv3BiO-14" value="" style="shape=tableRow;horizontal=0;startSize=0;swimlaneHead=0;swimlaneBody=0;fillColor=none;collapsible=0;dropTarget=0;points=[[0,0.5],[1,0.5]];portConstraint=eastwest;top=0;left=0;right=0;bottom=0;" vertex="1" parent="W_eK2zmT97ttqeAv3BiO-7">
          <mxGeometry y="90" width="240" height="30" as="geometry" />
        </mxCell>
        <mxCell id="W_eK2zmT97ttqeAv3BiO-15" value="" style="shape=partialRectangle;connectable=0;fillColor=none;top=0;left=0;bottom=0;right=0;editable=1;overflow=hidden;whiteSpace=wrap;html=1;" vertex="1" parent="W_eK2zmT97ttqeAv3BiO-14">
          <mxGeometry width="30.000000000000455" height="30" as="geometry">
            <mxRectangle width="30.000000000000455" height="30" as="alternateBounds" />
          </mxGeometry>
        </mxCell>
        <mxCell id="W_eK2zmT97ttqeAv3BiO-16" value="postal_code" style="shape=partialRectangle;connectable=0;fillColor=none;top=0;left=0;bottom=0;right=0;align=left;spacingLeft=6;overflow=hidden;whiteSpace=wrap;html=1;" vertex="1" parent="W_eK2zmT97ttqeAv3BiO-14">
          <mxGeometry x="30.000000000000455" width="209.99999999999955" height="30" as="geometry">
            <mxRectangle width="209.99999999999955" height="30" as="alternateBounds" />
          </mxGeometry>
        </mxCell>
        <mxCell id="W_eK2zmT97ttqeAv3BiO-22" value="city" style="shape=partialRectangle;connectable=0;fillColor=none;top=0;left=0;bottom=0;right=0;align=left;spacingLeft=6;overflow=hidden;whiteSpace=wrap;html=1;" vertex="1" parent="1">
          <mxGeometry x="710" y="260" width="210" height="30" as="geometry">
            <mxRectangle width="210" height="30" as="alternateBounds" />
          </mxGeometry>
        </mxCell>
        <mxCell id="W_eK2zmT97ttqeAv3BiO-23" value="address_line1" style="shape=partialRectangle;connectable=0;fillColor=none;top=0;left=0;bottom=0;right=0;align=left;spacingLeft=6;overflow=hidden;whiteSpace=wrap;html=1;" vertex="1" parent="1">
          <mxGeometry x="710" y="290" width="210" height="30" as="geometry">
            <mxRectangle width="210" height="30" as="alternateBounds" />
          </mxGeometry>
        </mxCell>
        <mxCell id="W_eK2zmT97ttqeAv3BiO-24" value="address_line2" style="shape=partialRectangle;connectable=0;fillColor=none;top=0;left=0;bottom=0;right=0;align=left;spacingLeft=6;overflow=hidden;whiteSpace=wrap;html=1;" vertex="1" parent="1">
          <mxGeometry x="710" y="320" width="210" height="30" as="geometry">
            <mxRectangle width="210" height="30" as="alternateBounds" />
          </mxGeometry>
        </mxCell>
        <mxCell id="W_eK2zmT97ttqeAv3BiO-25" value="prefecture" style="shape=partialRectangle;connectable=0;fillColor=none;top=0;left=0;bottom=0;right=0;align=left;spacingLeft=6;overflow=hidden;whiteSpace=wrap;html=1;" vertex="1" parent="1">
          <mxGeometry x="710" y="230" width="209.99999999999955" height="30" as="geometry">
            <mxRectangle width="209.99999999999955" height="30" as="alternateBounds" />
          </mxGeometry>
        </mxCell>
        <mxCell id="W_eK2zmT97ttqeAv3BiO-19" value="created_at" style="shape=partialRectangle;connectable=0;fillColor=none;top=0;left=0;bottom=0;right=0;align=left;spacingLeft=6;overflow=hidden;whiteSpace=wrap;html=1;" vertex="1" parent="1">
          <mxGeometry x="710" y="350" width="210" height="30" as="geometry">
            <mxRectangle width="210" height="30" as="alternateBounds" />
          </mxGeometry>
        </mxCell>
        <mxCell id="RPULxNUFJkbllqwDgE0V-29" value="postal_code" style="shape=partialRectangle;connectable=0;fillColor=none;top=0;left=0;bottom=0;right=0;align=left;spacingLeft=6;overflow=hidden;whiteSpace=wrap;html=1;" vertex="1" parent="1">
          <mxGeometry x="710" y="720" width="210" height="30" as="geometry">
            <mxRectangle width="210" height="30" as="alternateBounds" />
          </mxGeometry>
        </mxCell>
        <mxCell id="RPULxNUFJkbllqwDgE0V-13" value="city" style="shape=partialRectangle;connectable=0;fillColor=none;top=0;left=0;bottom=0;right=0;align=left;spacingLeft=6;overflow=hidden;whiteSpace=wrap;html=1;" vertex="1" parent="1">
          <mxGeometry x="710" y="780" width="210" height="30" as="geometry">
            <mxRectangle width="210" height="30" as="alternateBounds" />
          </mxGeometry>
        </mxCell>
        <mxCell id="RPULxNUFJkbllqwDgE0V-14" value="address_line1" style="shape=partialRectangle;connectable=0;fillColor=none;top=0;left=0;bottom=0;right=0;align=left;spacingLeft=6;overflow=hidden;whiteSpace=wrap;html=1;" vertex="1" parent="1">
          <mxGeometry x="710" y="810" width="210" height="30" as="geometry">
            <mxRectangle width="210" height="30" as="alternateBounds" />
          </mxGeometry>
        </mxCell>
        <mxCell id="RPULxNUFJkbllqwDgE0V-15" value="address_line2" style="shape=partialRectangle;connectable=0;fillColor=none;top=0;left=0;bottom=0;right=0;align=left;spacingLeft=6;overflow=hidden;whiteSpace=wrap;html=1;" vertex="1" parent="1">
          <mxGeometry x="710" y="840" width="210" height="30" as="geometry">
            <mxRectangle width="210" height="30" as="alternateBounds" />
          </mxGeometry>
        </mxCell>
        <mxCell id="RPULxNUFJkbllqwDgE0V-16" value="prefecture" style="shape=partialRectangle;connectable=0;fillColor=none;top=0;left=0;bottom=0;right=0;align=left;spacingLeft=6;overflow=hidden;whiteSpace=wrap;html=1;" vertex="1" parent="1">
          <mxGeometry x="710" y="750" width="209.99999999999955" height="30" as="geometry">
            <mxRectangle width="209.99999999999955" height="30" as="alternateBounds" />
          </mxGeometry>
        </mxCell>
        <mxCell id="RPULxNUFJkbllqwDgE0V-36" value="" style="endArrow=none;html=1;rounded=0;" edge="1" parent="1">
          <mxGeometry width="50" height="50" relative="1" as="geometry">
            <mxPoint x="710" y="900" as="sourcePoint" />
            <mxPoint x="710" y="840" as="targetPoint" />
          </mxGeometry>
        </mxCell>
      </root>
    </mxGraphModel>
  </diagram>
</mxfile>
